HIERARCHY
ROOT hip
{
  OFFSET 0 0 0
  CHANNELS 6 Xposition Yposition Zposition Zrotation Yrotation Xrotation
  JOINT abdomen
  {
    OFFSET 0 20.6881 -0.73152
    CHANNELS 3 Zrotation Xrotation Yrotation
    JOINT chest
    {
      OFFSET 0 11.7043 -0.48768
      CHANNELS 3 Zrotation Xrotation Yrotation
      JOINT neck
      {
        OFFSET 0 22.1894 -2.19456
        CHANNELS 3 Zrotation Xrotation Yrotation
        JOINT head
        {
          OFFSET -0.24384 7.07133 1.2192
          CHANNELS 3 Zrotation Xrotation Yrotation
          JOINT leftEye
          {
            OFFSET 4.14528 8.04674 8.04672
            CHANNELS 3 Zrotation Xrotation Yrotation
            End Site
            {
              OFFSET 1 0 0
            }
          }
          JOINT rightEye
          {
            OFFSET -3.6576 8.04674 8.04672
            CHANNELS 3 Zrotation Xrotation Yrotation
            End Site
            {
              OFFSET 1 0 0
            }
          }
        }
      }
      JOINT rCollar
      {
        OFFSET -2.68224 19.2634 -4.8768
        CHANNELS 3 Zrotation Xrotation Yrotation
        JOINT rShldr
        {
          OFFSET -8.77824 -1.95073 1.46304
          CHANNELS 3 Zrotation Xrotation Yrotation
          JOINT rForeArm
          {
            OFFSET -28.1742 -1.7115 0.48768
            CHANNELS 3 Zrotation Xrotation Yrotation
            JOINT rHand
            {
              OFFSET -22.5879 0.773209 7.07136
              CHANNELS 3 Zrotation Xrotation Yrotation
              JOINT rThumb1
              {
                OFFSET -1.2192 -0.487915 3.41376
                CHANNELS 3 Zrotation Xrotation Yrotation
                JOINT rThumb2
                {
                  OFFSET -3.37035 -0.52449 3.41376
                  CHANNELS 3 Zrotation Xrotation Yrotation
                  End Site
                  {
                    OFFSET -1.78271 -1.18214 1.43049
                  }
                }
              }
              JOINT rIndex1
              {
                OFFSET -7.75947 0.938293 5.60832
                CHANNELS 3 Zrotation Xrotation Yrotation
                JOINT rIndex2
                {
                  OFFSET -2.54057 -0.884171 1.56538
                  CHANNELS 3 Zrotation Xrotation Yrotation
                  End Site
                  {
                    OFFSET -1.62519 -0.234802 1.16502
                  }
                }
              }
              JOINT rMid1
              {
                OFFSET -8.24714 1.18213 3.41376
                CHANNELS 3 Zrotation Xrotation Yrotation
                JOINT rMid2
                {
                  OFFSET -3.10165 -0.590103 1.0647
                  CHANNELS 3 Zrotation Xrotation Yrotation
                  End Site
                  {
                    OFFSET -2.48547 -0.328903 0.83742
                  }
                }
              }
              JOINT rRing1
              {
                OFFSET -8.82822 0.546677 1.51678
                CHANNELS 3 Zrotation Xrotation Yrotation
                JOINT rRing2
                {
                  OFFSET -2.60934 -0.819778 -0.0198488
                  CHANNELS 3 Zrotation Xrotation Yrotation
                  End Site
                  {
                    OFFSET -2.33842 -0.294052 0.168128
                  }
                }
              }
              JOINT rPinky1
              {
                OFFSET -8.27202 -0.0477905 -0.4584
                CHANNELS 3 Zrotation Xrotation Yrotation
                JOINT rPinky2
                {
                  OFFSET -1.82734 -0.647385 -0.700984
                  CHANNELS 3 Zrotation Xrotation Yrotation
                  End Site
                  {
                    OFFSET -1.69225 -0.51767 -0.607171
                  }
                }
              }
            }
          }
        }
      }
      JOINT lCollar
      {
        OFFSET 2.68224 19.2634 -4.8768
        CHANNELS 3 Zrotation Xrotation Yrotation
        JOINT lShldr
        {
          OFFSET 8.77824 -1.95073 1.46304
          CHANNELS 3 Zrotation Xrotation Yrotation
          JOINT lForeArm
          {
            OFFSET 28.1742 -1.7115 0.48768
            CHANNELS 3 Zrotation Xrotation Yrotation
            JOINT lHand
            {
              OFFSET 22.5879 0.773209 7.07136
              CHANNELS 3 Zrotation Xrotation Yrotation
              JOINT lThumb1
              {
                OFFSET 1.2192 -0.487915 3.41376
                CHANNELS 3 Zrotation Xrotation Yrotation
                JOINT lThumb2
                {
                  OFFSET 3.37035 -0.52449 3.41376
                  CHANNELS 3 Zrotation Xrotation Yrotation
                  End Site
                  {
                    OFFSET 1.78271 -1.18214 1.43049
                  }
                }
              }
              JOINT lIndex1
              {
                OFFSET 7.75947 0.938293 5.60832
                CHANNELS 3 Zrotation Xrotation Yrotation
                JOINT lIndex2
                {
                  OFFSET 2.54057 -0.884171 1.56538
                  CHANNELS 3 Zrotation Xrotation Yrotation
                  End Site
                  {
                    OFFSET 1.62519 -0.234802 1.16502
                  }
                }
              }
              JOINT lMid1
              {
                OFFSET 8.24714 1.18213 3.41376
                CHANNELS 3 Zrotation Xrotation Yrotation
                JOINT lMid2
                {
                  OFFSET 3.10165 -0.590103 1.0647
                  CHANNELS 3 Zrotation Xrotation Yrotation
                  End Site
                  {
                    OFFSET 2.48547 -0.328903 0.83742
                  }
                }
              }
              JOINT lRing1
              {
                OFFSET 8.82822 0.546677 1.51678
                CHANNELS 3 Zrotation Xrotation Yrotation
                JOINT lRing2
                {
                  OFFSET 2.60934 -0.819778 -0.0198488
                  CHANNELS 3 Zrotation Xrotation Yrotation
                  End Site
                  {
                    OFFSET 2.33842 -0.294052 0.168128
                  }
                }
              }
              JOINT lPinky1
              {
                OFFSET 8.27202 -0.0477905 -0.4584
                CHANNELS 3 Zrotation Xrotation Yrotation
                JOINT lPinky2
                {
                  OFFSET 1.82734 -0.647385 -0.700984
                  CHANNELS 3 Zrotation Xrotation Yrotation
                  End Site
                  {
                    OFFSET 1.69225 -0.51767 -0.607171
                  }
                }
              }
            }
          }
        }
      }
    }
  }
  JOINT rButtock
  {
    OFFSET -8.77824 4.35084 1.2192
    CHANNELS 3 Zrotation Xrotation Yrotation
    JOINT rThigh
    {
      OFFSET 0 -1.70687 -2.19456
      CHANNELS 3 Zrotation Xrotation Yrotation
      JOINT rShin
      {
        OFFSET 0 -36.8199 0.73152
        CHANNELS 3 Zrotation Xrotation Yrotation
        JOINT rFoot
        {
          OFFSET 0.73152 -45.1104 -5.12064
          CHANNELS 3 Zrotation Xrotation Yrotation
          End Site
          {
            OFFSET -1.1221 -3.69964 12.103
          }
        }
      }
    }
  }
  JOINT lButtock
  {
    OFFSET 8.77824 4.35084 1.2192
    CHANNELS 3 Zrotation Xrotation Yrotation
    JOINT lThigh
    {
      OFFSET 0 -1.70687 -2.19456
      CHANNELS 3 Zrotation Xrotation Yrotation
      JOINT lShin
      {
        OFFSET 0 -36.8199 0.73152
        CHANNELS 3 Zrotation Xrotation Yrotation
        JOINT lFoot
        {
          OFFSET -0.73152 -45.1104 -5.12064
          CHANNELS 3 Zrotation Xrotation Yrotation
          End Site
          {
            OFFSET 1.1221 -3.69964 12.103
          }
        }
      }
    }
  }
}
MOTION
Frames:	4
Frame Time:	0.00833333
-1.17973 82.4112 49.9791 -7.2993 -3.7361 12.4827 6.01858 4.06134 -0.93966 -3.30731 -2.64137 -0.361087 2.52647 18.5805 -0.258324 6.14541 -38.4094 1.73419 -0.0 0.0 0.0 -0.0 0.0 0.0 -5.04033e-14 -1.29545e-13 -6.96612e-14 -10.3292 49.6517 48.5898 -14.67 -56.5596 125.982 -2.36273 -39.3122 -6.60834 6.49436e-10 1.44979e-09 -1.27285e-09 1.16766e-09 2.51716e-09 -2.17933e-09 6.49442e-10 1.4498e-09 -1.27285e-09 7.73091 5.47488 0.417314 6.49437e-10 1.44979e-09 -1.27284e-09 2.90554 0.965183 0.102902 6.49441e-10 1.44979e-09 -1.27285e-09 10.2786 0.731801 0.0259123 6.49426e-10 1.44979e-09 -1.27284e-09 2.22167 -0.733487 -0.20892 -5.04689e-14 -1.29546e-13 -7.01034e-14 10.3794 63.1538 -57.3125 13.5541 -57.0604 -128.233 1.10658 -28.4392 4.36522 -4.26591e-10 6.23419e-10 6.51193e-10 -7.5766e-10 1.08083e-09 1.11697e-09 -4.26598e-10 6.2342e-10 6.51199e-10 -7.73091 5.47488 -0.417314 -4.2659e-10 6.23418e-10 6.51199e-10 -2.90554 0.965183 -0.102902 -4.26588e-10 6.23417e-10 6.51196e-10 -10.2786 0.731801 -0.0259123 -4.26585e-10 6.23418e-10 6.51184e-10 -2.22167 -0.733487 0.20892 -2.03217e-16 0.0 -3.88251e-19 2.17848 -10.22 21.7083 -3.64652e-05 2.45146 0.281125 -5.04047 -4.75553 -21.7968 2.03217e-16 0.0 3.88251e-19 2.28428 -13.0404 -30.8464 -0.125747 13.966 -0.270314 9.86045 -13.0644 44.1758
-1.2057 82.4199 50.0892 -7.4175 -3.6156 12.334 5.948 3.80033 -0.970708 -3.29883 -2.84255 -0.384459 2.7222 18.1372 -0.206879 5.5483 -36.7243 1.52605 -0.0 0.0 0.0 -0.0 0.0 0.0 -7.69104e-14 -1.60617e-13 -1.3413e-13 -11.0774 49.9733 49.1253 -14.7136 -56.5392 125.893 -2.36001 -39.2943 -6.60408 3.34629e-10 1.47451e-09 -1.58705e-09 6.35343e-10 2.57932e-09 -2.73451e-09 3.34631e-10 1.47451e-09 -1.58706e-09 7.73091 5.47488 0.417314 3.3463e-10 1.47451e-09 -1.58705e-09 2.90554 0.965183 0.102902 3.34633e-10 1.47451e-09 -1.58705e-09 10.2786 0.731801 0.0259123 3.3462e-10 1.47451e-09 -1.58704e-09 2.22167 -0.733487 -0.20892 -7.69539e-14 -1.60619e-13 -1.34577e-13 10.1367 63.6201 -56.971 13.5617 -57.0572 -128.218 1.11683 -28.5559 4.38656 -9.41228e-10 9.84801e-10 8.01188e-10 -1.65065e-09 1.70019e-09 1.36437e-09 -9.41233e-10 9.84799e-10 8.01191e-10 -7.73091 5.47488 -0.417314 -9.41228e-10 9.84799e-10 8.01194e-10 -2.90554 0.965183 -0.102902 -9.41227e-10 9.84798e-10 8.0119e-10 -10.2786 0.731801 -0.0259123 -9.41222e-10 9.848e-10 8.01179e-10 -2.22167 -0.733487 0.20892 -2.03217e-16 0.0 -3.88251e-19 2.18835 -10.0227 21.6051 0.00108121 2.3838 0.283158 -5.04956 -4.77191 -21.8064 2.03217e-16 0.0 3.88251e-19 2.30449 -12.8948 -30.8752 -0.125539 13.958 -0.265849 9.87884 -13.0992 44.1312
-1.23041 82.426 50.1866 -7.5111 -3.51 12.162 5.84938 3.57702 -0.940261 -3.28889 -2.97406 -0.387778 2.95629 17.4836 -0.146113 4.96385 -34.8501 1.33789 -0.0 0.0 0.0 -0.0 0.0 0.0 -1.00889e-13 -2.18464e-13 -1.24874e-13 -10.9908 50.0894 49.288 -14.7736 -56.5109 125.77 -2.35924 -39.289 -6.60285 9.86705e-11 1.0711e-09 -1.27347e-09 2.16229e-10 1.88227e-09 -2.20076e-09 9.86745e-11 1.07111e-09 -1.27347e-09 7.73091 5.47488 0.417314 9.86701e-11 1.07111e-09 -1.27346e-09 2.90554 0.965183 0.102902 9.86754e-11 1.0711e-09 -1.27346e-09 10.2786 0.731801 0.0259123 9.86632e-11 1.0711e-09 -1.27346e-09 2.22167 -0.733487 -0.20892 -1.00949e-13 -2.18465e-13 -1.25301e-13 9.60192 63.9759 -56.4928 13.5839 -57.0477 -128.174 1.11373 -28.5202 4.38005 -8.8954e-10 9.63443e-10 8.5491e-10 -1.56083e-09 1.66464e-09 1.45941e-09 -8.89544e-10 9.63439e-10 8.54915e-10 -7.73091 5.47488 -0.417314 -8.8954e-10 9.6344e-10 8.54916e-10 -2.90554 0.965183 -0.102902 -8.8954e-10 9.63439e-10 8.5491e-10 -10.2786 0.731801 -0.0259123 -8.89534e-10 9.6344e-10 8.54899e-10 -2.22167 -0.733487 0.20892 -2.03217e-16 0.0 -3.88251e-19 2.22448 -9.81627 21.5475 0.0023809 2.32636 0.285932 -5.06639 -4.82706 -21.7871 2.03217e-16 0.0 3.88251e-19 2.34597 -12.7252 -30.8658 -0.125466 13.9494 -0.262969 9.8665 -13.0872 44.1112
-1.24757 82.4257 50.2637 -7.5395 -3.4819 11.9989 5.73802 3.397 -0.866566 -3.29132 -3.08304 -0.377534 3.23061 16.6561 -0.0787739 4.38453 -32.8001 1.16362 -0.0 0.0 0.0 -0.0 0.0 0.0 -1.25239e-13 -2.9619e-13 -7.38392e-14 -10.2638 50.0935 49.236 -14.8507 -56.4742 125.612 -2.35778 -39.2792 -6.60053 -1.34204e-10 3.60631e-10 -5.6021e-10 -2.12175e-10 6.43925e-10 -9.75481e-10 -1.34195e-10 3.60635e-10 -5.60222e-10 7.73091 5.47488 0.417314 -1.34206e-10 3.60635e-10 -5.60209e-10 2.90554 0.965183 0.102902 -1.34197e-10 3.60634e-10 -5.60209e-10 10.2786 0.731801 0.0259123 -1.34209e-10 3.60634e-10 -5.60202e-10 2.22167 -0.733487 -0.20892 -1.2534e-13 -2.96189e-13 -7.42274e-14 8.84188 64.2847 -55.9417 13.6181 -57.033 -128.105 1.10141 -28.379 4.35428 -5.19062e-10 7.21275e-10 8.50828e-10 -9.17421e-10 1.25109e-09 1.46251e-09 -5.19065e-10 7.2127e-10 8.50837e-10 -7.73091 5.47488 -0.417314 -5.19063e-10 7.2127e-10 8.50833e-10 -2.90554 0.965183 -0.102902 -5.19064e-10 7.21271e-10 8.50826e-10 -10.2786 0.731801 -0.0259123 -5.19055e-10 7.21271e-10 8.50816e-10 -2.22167 -0.733487 0.20892 -2.03217e-16 0.0 -3.88251e-19 2.28844 -9.61076 21.5238 0.00378036 2.27605 0.28893 -5.08573 -4.9022 -21.7479 2.03217e-16 0.0 3.88251e-19 2.41502 -12.5472 -30.833 -0.125443 13.9434 -0.261071 9.84118 -13.0491 44.1123
